<?xml version="1.0" encoding="utf-8"?>
<!-- Generator: Adobe Illustrator 24.2.0, SVG Export Plug-In . SVG Version: 6.00 Build 0)  -->
<svg version="1.1" id="Capa_1" xmlns="http://www.w3.org/2000/svg" xmlns:xlink="http://www.w3.org/1999/xlink" x="0px" y="0px"
	 viewBox="0 0 505.9 548" style="enable-background:new 0 0 505.9 548;" xml:space="preserve">
<style type="text/css">
	.st0{fill:#626463;}
</style>
<g id="circulo">
	<g>
		<path class="st0" d="M489.6,290.3l-0.3,3.7C489.5,293.6,489.6,292.6,489.6,290.3z"/>
		<path class="st0" d="M491.1,287c0-0.1,0-0.3,0-0.3C491,286.8,491,286.8,491.1,287z"/>
		<path class="st0" d="M354.7,41.9c1.4,0.4,2.7,0.8,3.3,0.9C356,42,355.1,41.9,354.7,41.9z"/>
		<path class="st0" d="M140.5,80.6c0-0.1,0-0.3,0-0.4C140.2,80.4,140.2,80.6,140.5,80.6z"/>
		<path class="st0" d="M483.7,332.8c0.1-0.5,0.3-1.2,0.5-1.7C483.9,330.7,483.6,332.3,483.7,332.8z"/>
		<path class="st0" d="M406.8,72.9c0.3,0,0.4,0,0.6,0C407.1,72.9,407,72.9,406.8,72.9z"/>
		<path class="st0" d="M413,441.5c-0.3,0.4-0.6,0.8-1,1.2C412.4,442.3,412.8,441.9,413,441.5z"/>
		<path class="st0" d="M88.7,86.5c-0.5,0.6-0.8,1-0.9,1.3C88.5,87.1,88.8,86.5,88.7,86.5z"/>
		<path class="st0" d="M90.5,89.6c8.4-8.6-3.3,0.1-2.7-1.8c-2.2,2.4-7.2,6.9-4.4,5.4c-1.5,0.6-3.1,1.9-4.6,3.5
			c-1.5,1.5-3.1,3.5-4.6,5.3c-3.1,3.7-6,7.7-8.9,9.6c0,0.4,3.1-2.2,0.4,1.8c-2.2,2.7-3.3,3.9-4.2,4.6c-0.9,0.6-1.5,0.9-2.6,1.9
			c-0.4,1-2.2,3.7-3.7,6c-1.5,2.3-2.8,4.4-2.7,3.9c-2.3,4.1,4.6-2.8,1.7,3.1c-1.4,4.4-5.5,8.6-8,13.2c-4.2,4.6,2.7-5.5,3.7-8
			c0,0-2.2,3.7-4.5,7.6c-1.2,1.9-2.1,3.9-2.8,5.3c-0.8,1.4-1.3,2.4-1.3,2.4c-3.2,4.1-0.1-2.7,2.7-7.1c-2.2,2.8-4.2,6.3-5.7,9.4
			c-1.4,3.1-2.2,5.8-2.2,6.9c-2.2,3.7-3.1,5.9-5.1,9.5c0.5-2.1,0.3-3.2,0.3-4.6s0.1-3.1,1.4-6c5-9.5-0.4,4.2,4.1-3.7l-0.8-1.3
			c2.6-3.1,3.3-6.2,5.3-9.9c1.4-1.9,0.1,0.6-0.5,2.1c1.8-3.3,3.9-6,5.5-8.7c0.9-1.3,1.7-2.7,2.3-4s1.4-2.6,1.9-4
			c-0.9,0.9-1.8,2.1-2.6,3.1c-0.8,1.2-1.7,2.3-2.4,3.6c-1.5,2.4-3.2,5-4.6,7.5c-2.7,5-5.3,9.3-6.9,10.9c0,0-1.9,4.8-3.9,9.5
			c-1.7,4.8-3.5,9.6-3.5,9.6c0.5,0.3,4.2-5.8,2.7-0.3c-2.4,1.5-5.1,6.8-8.2,14c2.4-2.2-2.7,12.2-0.1,9c0.4-3.7,2.2-5,2.6-5.4
			c-2.3,7.1,1,1.4-0.1,5.3c-1.2,3.2-1.8,4.8-2.1,5.5c-0.4,0.8-0.4,0.6-0.5,0.5c-0.3-0.3-0.5-0.5-2.6,5.8c0-1.4,0.1-4,0.5-7.2
			c0.3-3.1,1-6.8,1.9-10.4c-0.8,0.3-2.4,7.1-4,9.9c2.1-4,0.6,3.5,1.9,0c-2.6,10.7-3.9,23.3-5.5,36.2c-1-1.2-0.5-6.7-0.1-11.4
			c0.4-4.8,0.9-8.9-1-7.1c-1.2,6.4,0.1,6.7-1,11.7c-1,2.1-1.9,5.8-2.2,10.2c-0.1,2.2-0.4,4.5-0.6,6.8c-0.3,2.3-0.3,4.6-0.4,6.9
			l1-3.9c0.1,1.7,0,4.1-0.3,6.6c-0.3,2.4-0.6,5-0.6,6.9l-0.3-1l0.4,3.9c-0.1,0.6-0.1,0.8-0.3,0.8c0.5,4.2-0.1,15,0.9,23
			c0.6,0,0.4-2.1,0.3-4.5c-0.1-2.4-0.5-5.4-0.5-7.3c0.1-0.5,0.3-2.7,0.5-4.2c0.3-1.5,0.6-2.4,1-0.6c0,5,0.5,9.3,1,13.6
			c0.8,4.4,1.3,8.9,1.8,14.4c0,0,0-0.9,0-1.8c0-0.9,0-1.8,0-1.8c1,3.5,1.4,8.2,2.1,13.6c0.4,4.9-0.3,3.2-1,1
			c-0.8-2.2-1.4-4.9-1.4-1.9c-1.5-3.7-1.3-10.4-2.7-11.3c0,0-0.1,0.4-0.1,1c-0.1,0.6-0.1,1.4-0.3,2.2C9,306.3,8.9,308,8.9,308
			c0.8,2.6,1,5.3,1.2,7.8c0.3,2.6,0.4,4.9,0.8,6.7v-4c1.4,0.5,1,4.2,1.3,6.2l1.3-3c-0.4-2.8-1-5.1-1.7-7.2c-0.5-2.2-0.9-4.1-0.6-6.2
			c0.9,4.9,1.7,6.8,2.6,8.9s1.5,4.4,2.7,10.3c-0.6,0.6-0.8-2.2-1.4-3.3c0.1,2.1,0.8,4.1,1.5,6.4s1.5,4.9,2.1,8.2
			c-1.3-3.6-3.3-9.5-3.2-4.5l2.2,3.2c0.5,3.1-0.3,1.9,0,3.2c0.9,4.2,1.2-1.3,2.7,5.4c0,1,0.4,3.3-0.3,2.4c0.5,1.9,0.9,3.1,1.3,3.9
			c0.3,0.8,0.5,1.2,0.8,1.5c0.5,0.8,1,1.4,2.6,4.9c-2.2-6.3-0.3-7.2,2.2-0.8c3.1,9.1,6.7,14.8,7.8,21.5l2.6,3.6
			c-2.4-1.9,2.3,5.7,3.6,8.5c-0.4,0.8-2.1-2.4-3.9-5.8c-0.9-1.7-1.8-3.3-2.6-4.6c-0.8-1.3-1.5-1.9-2.1-1.8c2.4,5.9,0.6,3.7-0.8,2.1
			c3.1,6.3,2.6,1.7,4.8,4c-0.5,0.3,5.3,10.5,2.3,7.5c1.3,2.7,2.6,4,3.6,5.1c1,1.2,1.9,2.2,3,4.1c-0.8-0.3-1.8-0.5-2.2,0.1
			c0.4,0.1,1,1.4,1.8,2.8c0.6,1.4,1.5,3,1.8,3.3c-0.3-1,2.1,1.2-1-3.1c1.7,0.5,6.6,10.2,7.2,9.4c-0.4,0.6,1.2,2.8,3.1,5.7
			c1,1.4,2.1,2.8,3.1,4.2c1,1.4,2.1,2.7,2.8,3.9c1-1.2-0.8-2.8-2.6-4.9c-1.8-1.9-3.9-4-3.3-5.4c4.8,5.4,14.5,19.1,23.4,26.6
			c6.4,7.6-0.8,0.8-0.3,3.1c-1.7-1.5-3-3-4.1-4.1c-1-1.3-1.9-2.3-2.8-3.3c-1.7-2.2-3.3-4.1-6-7.1c1.2,1.8,3,3.7,4.6,5.8
			c1.8,2.1,3.5,4.2,5.5,6.2c3.9,3.9,7.7,7.5,10.4,9.3c3.5,3.2,4.8,5.7,6.6,8c0.9,1.2,1.8,2.4,3.1,3.9s3,3,5.4,4.5
			c-0.6-1.7-0.3-1.7-2.8-4.4c2.4,1.8,5.1,4.2,7.8,6.3c1.9,0.8-3.6-3.7,0.4-1.3c1.3,1.3,4.2,3.7,3.2,3.7l-0.6-0.4
			c4.8,3,6,4.5,7.2,5.9c1.2,1.4,2.3,2.7,6.8,4.5c-0.4-0.8-2.4-1.4-4.2-3c-1-1.5,4.4,0.8,8.2,2.8c-1,0.1,3.1,2.2,5.7,3.9
			c0.6,1-1.2,0.1-3.2-1c-2.1-1.3-4.4-2.8-5.3-2.8c0,0,1.8,1.2,3.5,2.3c1.8,1.2,3.6,2.3,3.6,2.3l-1.4-1l8.5,3.6
			c-5.7-2.8-1.9-2.7,0.5-1.4c2.7,1.7,5.5,3.2,7.5,4.5s3,2.2,2.4,2.6c1.2-0.6,8.4,2.6,13.5,4.6c-5.4-3-0.3-1.3,1.5-1l8,4.5
			c-9.1-3.2,1.5,1.8-0.9,1.8c-1.5,0.1-3.6-0.5-5.9-1.5c-1.2-0.5-2.3-1-3.5-1.5c-1.2-0.6-2.3-1.2-3.5-1.8c4.1,3.2,7.6,4.1,10.8,4.9
			c1.7,0.4,3.2,0.8,5,1.3c1.7,0.4,3.5,1,5.5,1.9c-0.1,0.5-1.2,0.9-4.8-0.4c0.6,0.4,2.7,0.8,5.1,1.4c2.4,0.6,5.4,1.4,8.2,2.4
			c-1.4-0.8-4.2-2.8,1.5-1.7l7.1,3.5c8.6,2.3,3.3-0.8,10.7,0.3l-4.5-2.1c0.5-0.5,3,0,5.3,0.5c2.3,0.5,4.6,0.8,4.9,0.1
			c-4.5-0.8-7.1-0.5-11.7-1.9c-1.4-1.7,6,0.6,8.9,0.5c4.8,1.2,6.7,1.7,8.2,2.2c1.5,0.5,2.8,1,6.4,2.1c0,1-3.1,1.4-6,1.5
			c-3,0.3-5.8,0.5-5.3,1.9c9.6,1.7,23.8,2.2,30.1,3.5c2.2,0,3.7-0.1,4.9-0.4c1.2-0.3,1.8-0.5,2.2-0.8c0.8-0.6,0.3-1.3-0.4-1.9
			c3.6-0.1,5.3,0.1,7.6,0.5l-4.1,0.5c5.4-0.1,9.5-0.8,13.7-1c1-0.1,2.2-0.1,3.2-0.3c1-0.1,2.2-0.3,3.3-0.4c2.3-0.3,4.8-0.5,7.6-0.6
			c6.3-0.9,3.6-2.1,1.9-2.7l6.7-1l-1-0.1c0.6-0.8,2.4-1.2,4.8-1.5c2.2-0.3,4.8-0.8,7.1-1c0.1,0.5-2.6,1.2-2.3,1.5
			c4-0.3,9.9-1.4,13-2.8c0.1,0.3-0.5,0.9-1.7,1.5c-0.6,0.3-1.3,0.6-2.2,0.9c-0.9,0.3-1.9,0.4-3.1,0.5c-0.5,0-0.3-0.3-0.8-0.4
			l-7.8,2.2c4.5-1.2,8.2-1.7,10.8-1.7c2.6,0,4,0.3,4,1c9-2.8-7.7,0.3,3-2.7c1.8-0.1,3.7-0.3,5.4-0.5c1.8-0.3,3.5-0.6,5.1-1
			c3.3-0.9,6.6-1.7,9.4-2.7c3-1,5.7-1.9,8.2-2.4c2.6-0.6,4.9-1,7.2-0.9c1.5-0.8,3.1-1.7,4.8-2.6c1.7-1,3.3-2.1,5.1-3.1
			c1.8-1,3.7-2.2,5.9-3.3c2.1-1.2,4.2-2.4,6.6-3.7c-0.3-0.5,1.3-1.4,2.7-2.3c1.4-0.9,2.6-1.8,1.8-2.2c-2.3,1-4.6,1.9-6.6,3.1
			c-2.1,1.2-4,2.4-5.9,3.6c-3.9,2.2-7.6,4.5-11.7,5c-4,2.2-2.2,2.4-3.9,3.9c-1.8,0.8-3.7,1.5-5.1,1.9c-1.5,0.4-2.6,0.5-3,0.3
			c2.2-0.9,3.3-1.7,4-2.2c0.6-0.6,0.9-1,1.3-1.5c0.6-0.9,1.7-1.9,7.1-4c-0.9-0.1-3.5,0.6-6.4,1.8c-1.4,0.5-3,1.2-4.4,1.7
			c-1.4,0.5-2.7,0.9-3.7,1.2c1-0.9-0.4-1-3.1-0.6c1.3-0.9,3.3-2.1,5.5-3.2c2.2-1.3,4.4-2.6,5.8-3.6c-0.9,0.9,1.3,0.4,0.4,1
			c0,0,0.6-0.4,1.7-0.9c1-0.5,2.3-1.3,3.6-2.1c2.6-1.7,5.1-3.2,5.1-3.2c3.6-0.9,4.9-0.5,3.3,0.9c3.1-1.2,6.9-3.6,10.2-5.4
			c3.2-1.8,5.7-3.2,6-2.4c7.3-4.5-2.8,0.5-3.7,0.4l0.6-0.4c0,0-0.5,0.3-1.2,0.8c-0.8,0.4-1.8,0.9-2.7,1.4c-2.1,1-4,2.2-4,2.2
			c-0.9-0.6,1.4-1.7,4.1-3c2.7-1.2,5.4-2.7,5.5-3.9c-0.3-1.9,2.6-3.2,6.2-4.6c3.5-1.4,7.8-3,10.3-4.9c0,0-0.3,0.4-0.8,1
			c-0.4,0.5-1,1.3-1.7,2.1c-1.2,1.5-2.4,3.1-2.4,3.1l5.1-4c-2.6,2.8-1.5,4.2-5.8,8.2c3.9-2.4,8.6-5,12.7-8c2.1-1.4,4.1-2.7,5.9-4
			c1.7-1.3,3.2-2.6,4.2-3.5c2.3-0.6,3.6-0.6,3.5,0.6c0.8-0.9,1.5-1.7,2.3-2.3c0.8-0.8,1.4-1.4,2.2-2.1c1.4-1.3,2.8-2.2,4.2-3.2
			c2.8-1.8,5.7-3.7,8.5-6.4c5.4-6.4-6.9,4.8-3.5-0.3c2.3-1.3,5.3-4.8,6.6-6.6c-0.6,1.2-2.8,3-5.3,5.1c-2.6,2.1-5.4,4.5-7.8,6.2
			c3.5-3,2.2-3.6,2.7-4.9c0,0-1.4,1.3-2.8,2.4c-1.4,1.2-3,2.3-3,2.3c-0.4-0.8,1.4-2.3,3.5-4c2.1-1.8,4.2-3.7,5.3-5.3
			c-0.6,2.6,0.3,1.8-0.4,4.4c4.4-4.9,11.2-11.8,15.4-15.4c2.6-2.1-1.2,2.6-2.2,4.1c1.8-0.4,3.9-5.3,5.7-5.4c0,1.3-2.6,3.1-3.9,5
			c0,0,0.3-0.3,0.5-0.6c0.4-0.4,0.9-0.9,1.4-1.7c1.2-1.3,2.8-3.1,4.5-4.9c1.7-1.8,3.2-3.6,4.4-5s1.9-2.3,1.9-2.3
			c0.4,0.4-2.3,4.2-4.5,6.4c2.2-2.1,3.7-4,5.1-6.3c0.8-1.2,1.4-2.3,2.1-3.6s1.2-2.8,1.8-4.5c2.1-2.6,4.5-5.1,6.2-7.1
			c1.7-1.8,2.7-2.7,2.4-1.5c1.3-2.7-0.3-1.3-0.6-1.7c5.1-7.3,3.6-9.3,6.3-13.9l-3,3c2.6-3.5,2.4-4.1,2.2-4.6
			c-0.3-0.5-0.5-0.9,1.5-4.1c0.4,1.7,1.8,1.8,3.5,1.2c-0.4-1.7,2.7-5.4,4.1-8.4c-1.8,1.4,1.9-6.8-1.2-2.4c1.2-3.6,2.4-6,3.5-8.4
			c1-2.3,1.9-4.4,2.2-7.2c-1.5,3.1,1.3-6.4-0.5-3.9c2.3-6.8,5.1-11.2,5.7-8.9c-0.9,2.3-2.7,6-1.7,6c0,0,1-3.2,2.1-6.3
			c0.5-1.5,1-3.2,1.3-4.4c0.3-1.2,0.5-2.1,0.5-2.1c1.4-3,2.8-7.1,4.2-7.2c-0.3-2.3,0.8-5.3,1.7-8.2c0.4-1.4,0.9-2.8,1.2-4.1
			c0.3-1.3,0.3-2.4,0-3.3c0.4,4.8-2.1,7.8-2.6,9.5l0.3-2.1c-0.1,0.3-0.1,0.6-0.3,1c0,0-0.3-1.5-0.4-3.1c-0.1-0.8-0.3-1.5-0.3-2.1
			c-0.1-0.5-0.1-0.9-0.1-0.9c-2.1,5.1,1.3,1.3-0.5,8.9c-1.8,3.1-1.7-0.9-1.5-4.6c0.3-3.7,0.3-7.6-1-4.2c-1.9,5.4,0.3,4.8,0,9.5
			l0.3-1.2c0,0-0.1,0.6-0.3,1.7s-0.3,2.3-0.6,3.6c-0.5,2.6-1,5.3-1,5.3c-0.8,0.3-0.5-3-0.5-3c-0.9,3.1-1.7,5.5-2.3,7.6
			c-0.8,2.1-1.5,3.9-2.3,5.5c-0.8,1.8-1.5,3.6-2.4,5.7c-1,2.1-2.1,4.6-3.5,7.7c0.6-0.8,3.6-2.6,1.7,3.3c-1.3,4.2-2.7,4.2-4.4,7.6
			c0.6-2.2,0.4-4.4,2.3-6.8l-1.5-0.4c1.2-5.1,0.8-6.6,0.8-8.4c0-1.8,0.4-3.9,2.3-10.5c-0.4-0.5,0-3.1,0.9-6.6
			c0.8-3.5,1.9-7.6,3-11.2c0,0-0.4,0.8-0.9,1.7c-0.5,0.8-1,1.5-1,1.5c0.1-3.9,0.5-4.2,1.2-4.6c0.5-0.5,1.2-1.3,1.5-6.3
			c0.8-0.9,1.5-1.9,2.3-3.1c0.8-1,1.4-2.1,2.1-2.8c1.3-1.5,2.4-1.8,2.7,1.2c0.9-3.5,1.2-5.9,1.3-8.1c0.1-2.3,0.1-4.5,0.5-7.7
			c2.2-3.7,1.5,2.2,3.2,1.7c0.3-2.3,0.4-5,0.3-6.7c-0.1-1.7-0.5-2.3-1.2-0.6l1.3-8.9c0.4-0.3,0.1,3,0,4.2c0.3-1.7,0.4-4.2,0.4-6.6
			c-0.1-2.3-0.5-4.5-0.8-5.5c0.1,0.8,0.3,3,0,4c-0.4-3.7-1-10.4-1.4-10.8c0.6,5.4-1.2,5.8-0.3,11.4c-0.4-0.5-1.3-1.5-1-4.4
			c-1,4.6-1.3,9.3-2.4,11c1.2-3.9,0.1-6.4,0-7.2c-0.5,3.5-0.8,10.3-0.5,12.7c-1.9,0.3-1.4,13.5-2.7,8.6c0.3,0.4,0.3,1.8,0.1,3.6
			c-0.3,1.7-0.6,3.6-1.2,4.8c-0.4-0.1-0.4-1.9-0.4-4c0.1-2.1-0.1-4.5-0.3-5.9c0.8-13.4,1.3,0.4,2.3-2.6c0,0,0.1-0.6,0.1-1.5
			c0.1-0.9,0.3-2.2,0.4-3.5c0.1-2.6,0.3-5.1,0.3-5.1c-0.4,1-1-4.1-1.4,2.4c-0.5-1.5-0.8-4-0.8-6.7c0-2.7,0-5.5,0.5-8.1
			c-0.5-1.2-0.5,2.6-0.6,3.7c-0.5-1.3-2.3-7.6-2.8,0.6c0.1-2.3,0.8,4,1.5-0.1c0.1,1.7-0.3,4.8-0.8,6.9c-0.5,2.2-1,3.5-1.4,1.7
			c0.1,4-0.1,11.6-0.4,14.9c-0.9,0.8,0-2.8-0.1-4.5c0,0-0.3,2.8-0.5,5.8c-0.4,2.8-0.8,5.7-0.8,5.7l1.5-3.1
			c-1.2,4.1-1.2,7.6-1.4,10.9s-0.1,6.4-0.6,9.9c-1.2-1.3,0-6.8,0.3-11.4c-2.7,3.7,0.3,3-1.5,9.8c-0.5,0.9-0.9,1-1.2,0.5
			c0,0,0,0.4,0,0.9c0,0.5-0.1,1.3-0.1,1.9c-0.1,1.4-0.1,2.8-0.1,2.8c-0.6,1.5-0.6,0.5-0.5-0.1c-0.5,4.9,0,5,0.3,5.4
			c0.3,0.5,0.4,1.3-1.4,7.6c1.7-3.6,1.9-5.3,2.1-6.8c0.1-1.5,0.1-3,1-6.2c1-1.7,1,0.3,0.6,3c-0.1,1.3-0.4,2.8-0.5,4.1
			c-0.3,1.3-0.4,2.3-0.4,2.8c-2.4,6-4.6,6-6.6,14c1.4-5.7-1.2-0.6,1.7-8.4c0.8-4.5-1.3,2.1-2.6,2.6c-0.5,2.1,1.9-0.8-0.4,4.6
			l-0.1-0.3c0,0-0.5,2.4-1,4.9c-0.6,2.4-1.3,4.8-1.3,4.8c-4.2,8-7.6,19.3-12.2,23.8l2.1-0.5c-1.3,2.6-3.2,5.5-4.9,8.4
			c-0.9,1.4-1.7,2.8-2.4,4c-0.8,1.2-1.4,2.3-2.1,3.2c-0.1-0.6,0.4-1.8,1.2-3.2c0.8-1.4,1.7-3.2,2.7-5c-5.7,8.6-10.5,16.3-14,22.6
			c4-3.3,4.5-4,8-7.3c-1.2,3.3-2.7,4.8-4.5,6.3c-1.8,1.5-3.7,3.1-6.3,6.7c-1.3-0.8,0.8-2.8-1.8-2.2c-0.8,1.7-2.2,3.6-3.7,5.7
			c-1.5,1.9-3.2,3.9-4.2,5.7c-1.3,0.3-1.5-0.5-0.6-2.2c0.9-1.7,2.8-4.1,5.7-7.6c5.5-4.2,8.2-11.4,12.6-15.2c0,0-0.6,0.5-1.4,1
			c-0.6,0.5-1.4,1-1.4,1c1.9-2.7,3.3-5,4.8-7.2s2.7-4.1,4-6.8v0.3l0.3-3.2l-1.7,2.6c0.4-2.3,2.8-8.2,3.6-10c-1,2.1-1.9,3.7-2.4,5
			c-0.5,1.4-0.9,2.4-1,3.5c-0.4,2.1-0.3,3.7-1,5.9c-2.6,3.5-4.8,5.5-6.8,7.3c-2.1,1.8-3.7,3.3-4.9,5.9c-0.9-0.1-4.4,3.2-2.6-0.3
			c2.6-4,5.4-5.9,4.8-6.9c-3,3.9-2.3,2.1-6.8,8c0.1,1.9-2.6,7.1-5.4,11.8c-1.7,2.3-3.9,4.8-6,7.1c-2.2,2.2-4.5,4.1-6.3,5.5
			c2.1-2.1,3.9-4.2,4.9-5.9c1-1.7,1.4-2.8,0.5-2.7c-1.3,3.3-8.7,6.8-6.2,7.1c-4.9,4.5-13.4,11.6-15,10.7c1.2-1,2.3-2.1,3.5-3
			c1.2-1,2.3-1.9,3.5-2.8c2.3-1.8,4.6-3.5,6.3-5.5c-1,1-2.4,1.7-2.1,0.8l5.7-5.1c-2.4,1.7-3.5,2.3-4.6,3.1c-0.5,0.4-1.2,0.9-1.9,1.5
			c-0.8,0.6-1.8,1.5-3.2,2.8c0.4-0.3,1.3-0.6,0.9-0.1c-1.4,1.2-3.2,2.7-4.6,4l-1.2-1c-1.9,2.1-5.3,4.2-9.1,6.9c-1.9,1.3-4,2.6-6,4
			c-1,0.8-2.1,1.4-3.1,2.3c-1,0.8-2.1,1.5-3.1,2.3l0.6-0.8c-3.5,2.1-5,3.9-6.6,5.7c-1.5,1.8-3.2,3.7-7.1,6c1.9-1.9,0.5-1.8-0.1-2.3
			c-1.7,1.4-3.3,2.1-4.9,2.6c-1.7,0.5-3.3,0.9-5.4,1.8c4.9-1.5-2.3,3,1.2,1.8c0.9,1.4-7.5,5.1-11.8,6.9c-3.2-0.6,12.7-6.9,5.5-5.9
			c-4.2,1.8-4.9,3.2-1.8,2.2c-1.4,0.5-2.8,1.2-4.5,1.8c-1.7,0.5-3.3,1.2-5,1.7s-3.2,1-4.8,1.4c-1.5,0.4-2.8,0.5-4,0.5
			c-3.1,1.8-5.3,2.8-7.2,3.6c-1.9,0.8-3.6,1.5-5.5,3.1c1.8-0.5,2.7-1.2,3.6-1.7c1-0.5,2.2-1,4.5-1.4c0,0-1.2,0.8-2.2,1.4
			c-1.2,0.6-2.3,1.4-2.3,1.4c-3.2,0.9-6.3,1.5-9,1.9c-2.8,0.3-5.3,0.5-7.6,1l4.6-1.7l-0.1,0.3c0.8-0.5,2.8-1,4.4-1.5
			c1.7-0.6,3-1.2,2.4-1.5c-1,0.6-1.9,1-3,1.4c-1,0.4-2.1,0.5-3.1,0.8c-2.1,0.4-4.4,0.9-7.1,2.1l0.1-0.3c-2.4,0.8-4.8,1.2-7.1,1.4
			c-2.2,0.3-4.2,0.5-6.3,0.5c-4,0.1-7.5,0.5-10.5,2.2c1.8-0.3,5.7,0.3,4.6,1c-1.2-0.3-3.3,0-5.3,0c-1.8,0-3.3,0-3.3-0.4l2.1-0.4
			c-5.8,0.3-9.3,0.4-11.4,0.6c-1.5,1,0.1,1.7-4.1,2.3c-10.3-0.4,4.1-2.4-2.8-3.1c0,0-2.3,0.4-4.8,0.5c-2.4,0.3-4.8,0.4-4.8,0.4
			l-2.1-0.9c-1.8-0.1-3.5-0.3-5.1-0.4s-3.3-0.3-4.9-0.3c-3.2,0-6.4-0.3-9.6-0.3c-1.7,0-3.2-0.1-4.9-0.1c-1.7-0.1-3.3-0.3-5-0.4
			c-3.3-0.4-6.9-0.6-10.7-1.7c0-0.8,2.7-0.6,5.9-0.4c3.2,0.3,6.8,0.6,8.6,0.9c-2.2-1-5-1.4-8-1.8c-0.8-0.1-1.5-0.1-2.3-0.3
			c-0.8-0.1-1.5-0.3-2.3-0.5c-1.5-0.4-3.1-0.8-4.5-1.3c-1.4-0.4-2.7-0.6-4-0.8c-1.2-0.3-2.3-0.4-3.1-0.4c-1.8-0.1-2.7,0.3-2.4,0.8
			c-7.1-1.4-4.6-2.2-5.5-2.7c-2.7,0.8-11.2-2.6-16.7-4.5l0.1-0.9c0,0-2.2-0.5-4.5-1.2c-2.2-0.6-4.4-1.3-4.4-1.3
			c2.1,1-0.1,0.9-0.4,1.5l-2.1-1c1.8,1.5,3.9,2.7,6.2,3.7c2.3,0.9,4.8,1.7,7.2,2.4c1.2,0.4,2.4,0.8,3.6,1.2c1.3,0.4,2.4,0.8,3.6,1.2
			c2.3,0.8,4.5,1.9,6.6,3.3c-2.8-0.5,0.6,1.2-2.2,0.5c-2.2-0.9-2.6-1.2-2.7-1.5c-1.5,0.3-5.4-0.4-0.6,1.3c-0.4,0.9-3,0.4-6.3-0.5
			c-3.2-1-7.2-2.6-10.7-3.6c-2.3-1.7-0.8-1.4,1.7-1c2.4,0.5,5.9,1.4,7.3,1.5c-2.4-0.8-4.8-0.9-8.1-2.7l1.4-1c-9-3.1-2.8,0.1-5.4,0.6
			c-3.1,0.6-7.8-3.6-10.2-4.8l2.7,1c-3.2-1.9-5.3-2.8-7.3-3.5c-2.1-0.6-4.1-1.4-6.9-3.2l-2.2-2.6c3.3,2.7,5.8,3.6,7.8,4.1
			c2.2,0.4,4,0.5,5.9,2.1c-5.1-3.3-4.1-3.7-1.4-3.2c2.7,0.5,7.1,2.1,9,2.2c-2.4-0.9-4.6-2.1-6.4-3.1c-1.9-1-3.5-2.2-4.5-3.1
			c-3.7-1-7.1-3.1-10.3-5.1c-3.2-2.2-6.4-4.4-10-5.4c-3.1-2.6,3.5,1.2,0-1.3c-6.2-4.5-12.8-9.1-19.7-13.9c-3.2-2.8-2.2-2.8-2.7-4.1
			c-1.9-1.7-3.5-3.3-5.1-4.9c-1.5-1.5-3.1-2.8-4.6-4.1c-2.8-2.7-5.5-5-8.4-7.5c-2.6-2.6-5.4-5.1-8.2-8.2c-1.4-1.5-2.8-3.3-4.2-5.1
			c-0.8-0.9-1.5-1.9-2.3-3c-0.8-1-1.4-2.2-2.2-3.3l2.6,2.2c-2.6-4-4.6-7.2-6.8-8.6c-0.3-1.5-1.2-3.3-2.3-5.3c-0.6-0.9-1.3-1.9-2.1-3
			c-0.6-1-1.4-2.1-2.2-3.2c-1.4-2.2-3-4.4-4.1-6.6c-1-2.2-1.9-4.4-2.2-6.3c-2.1-4.5-3.3-6.7-4.9-8.5c-0.8-0.9-1.4-1.8-2.2-2.8
			c-0.8-1-1.5-2.3-2.3-4.1c0.5-0.3,2.4,1.5,1.2-2.3c-5.1-11.6-9-22.9-11.7-34.9c-2.8-11.9-4.8-24.5-5.7-38.5
			c0.3,0.3,0.4,1.7,0.6,2.3c-0.9-18-1.9-36.1,1.4-50.9c0.1-1.4,0.4-4.2,0.4-6.4s0.1-3.7-0.8-2.6c-0.8,3.5-2.2,3.7-2.8,3.3
			c0.3-3.5,0.8-5.5,1.3-6.8c0.4-1.4,0.9-1.9,1.3-2.4c0.8-0.9,1.5-1.3,2.4-5.8c1.4-1.2,1.3,0.3,1,2.1c-0.1,1.8-0.4,4,0.5,4.1
			c0,0,0.1-0.8,0.3-2.1c0.1-1.2,0.4-2.8,0.6-4.4c0.6-3.2,1.2-6.4,1.2-6.4c2.7-6.8,4.1-14.1,7.3-19.7c-1.3,2.6,1,1.4-1.4,5.5
			c0.1-0.6-0.1-0.3,0-1c-1,2.4-1.5,4.1-1.8,5.4c-0.3,1.2-0.4,1.9-0.5,2.6c-0.1,0.6-0.1,1.3-0.3,2.4c-0.1,1-0.5,2.4-1,4.9
			c0.4-2.1,1.2-4.2,1.8-6.6s1.3-4.6,2.1-6.9c0.8-2.3,1.7-4.5,2.6-6.7c0.4-1,0.8-2.1,1.3-3.1c0.5-0.9,0.9-1.8,1.3-2.7
			c-1.9,1,1.9-5.8,2.1-8.1l0.4-0.4c-0.5-0.3,1.3-4.6,1.8-6l2.3-0.9c1.3-3.1-1.2,0.4,0.1-2.6c1-2.1,3.5-6.9,6.2-11
			c2.8-4.1,5.5-7.7,6.7-7.7c1.5-2.3,2.4-4,3.3-5.7s1.8-3.3,3.7-5.5c0,0.6-0.6,1.8-0.6,2.2c7.7-9.8,17.6-21.6,27-28.8
			c0.8-0.9,1.7-1.7,2.4-2.6c0.9-0.8,1.7-1.5,2.4-2.3c1.5-1.5,3.1-3.1,4.6-4.5c3-2.8,5.5-5.3,7.6-7.6c-1.9,1.7-8.2,6-5,2.4
			c1.7-2.2,4.9-4.5,8.1-7.1c-0.3,1.3,8.9-5.3,2.6-0.1c2.6,0.3,14.3-9.9,15.2-8.1c0.6-0.8,3.5-2.4,6.6-4.4c3.1-1.9,6.6-3.7,8.2-5.3
			c1.3,0.4-5.3,3.3-4.9,3.9l4.5-2.6l0.3,0.5c4.5-2.1,7.1-3.6,9-5.1c2.1-1.5,3.5-3.1,6.2-4.2l-0.1,0.3l3.6-1.8l-3.9,3.2
			c5.8-2.6,8.4-5.1,15.2-7.7l0.8,0.3c0,0,1-0.5,1.9-0.9c0.5-0.3,1-0.5,1.3-0.6c0.4-0.1,0.6-0.3,0.6-0.3c-0.6,0.3-0.9,0.5-0.4,0.5
			c1.7-1.3,4.9-2.4,8-3.5c0.8-0.3,1.5-0.5,2.3-0.8c0.8-0.3,1.5-0.5,2.2-0.6c1.4-0.5,2.6-0.9,3.5-1.4c2.8-0.4,5.5,0.8,9.1-1.2
			l-0.4,1.9c-1.2,0.3-2.1,0.4-2.8,0.5c-0.8,0.1-1.3,0.3-1.8,0.3c-0.9,0.1-1.4,0.1-1.9,0c-1,0-2.1,0-6.8,1.4
			c3.9,0.4,10.8-0.9,18.5-1.9c7.7-1.2,16.2-2.2,23-2.7c1.4-0.3,2.8-0.5,4.4-0.6c1.5-0.1,3.2-0.1,4.9-0.3c3.3-0.1,6.8-0.3,10,0
			c3.2,0.1,6.3,0,8.9,0c2.6,0,4.6-0.3,5.8-0.9l-1.3,1c0,0,1.2,0.1,3,0.4c0.9,0.1,1.9,0.3,3,0.4c1,0.1,2.2,0.4,3.3,0.6
			c2.3,0.4,4.6,0.8,6.3,1.2c1.7,0.3,2.8,0.5,2.8,0.5c3.9,0.6,7.8,1.2,11.7,2.1c3.9,0.9,7.7,1.7,11.3,2.7c3.6,1,7.2,1.9,10.5,2.8
			c3.3,1,6.6,1.8,9.5,2.4l2.8,2.1c3.2,0.5,7.3,1.4,11.7,3.2c2.2,0.8,4.5,1.7,6.9,2.7c2.3,1,4.6,2.2,6.9,3.2c2.3,1,4.6,2.2,6.7,3.3
			c2.2,1,4.2,2.1,6.2,3c3.7,1.9,7.1,3.3,9.3,3.7c2.8,2.3,2.1,2.4,0.6,1.8c-1.4-0.5-3.7-1.7-4.2-1.5c1,0.8,2.4,1.5,3.9,2.3
			s3,1.7,4.5,2.6c1.5,0.9,3.1,1.8,4.4,2.7c1.3,0.9,2.3,2.1,3.1,3.2c-0.1,0.3-1.7-0.8-3-1.7c-1.2-0.8-2.1-1.3-0.9-0.1
			c2.3,3.2,5,2.6,7.6,6.2c-0.4-1,1.4-0.5,3.7,1c2.4,1.4,5.7,3.7,8.1,5.8c-0.9-0.9-0.9-0.8-1.2-1.3c-0.1-0.6,0.8-0.1,1.9,0.8
			c1,0.9,2.4,2.2,3.5,3.1c0,0-0.4,0-0.9-0.4c12.7,11,25.1,24.4,35.5,39.6c10.3,15.2,18.8,31.9,24.5,48.7l-3.1-5.8
			c1.2,2.3,2.6,5.5,3.6,8.6c1,3.1,1.8,5.9,2.2,7.3l-0.3-0.6c0.1,1.2,0.4,2.2,0.6,3.1c0.1,0.9,0.4,1.8,0.6,2.4c0.5,1.5,1,2.7,1.5,3.7
			c1,2.2,2.1,4.1,1.8,8l-0.5-1.4c1.3,5.5,1.9,10,2.3,14.5c0.3,2.2,0.5,4.5,0.9,6.8c0.3,2.3,0.6,4.8,1.3,7.6c0.3,4.4,0,6.3-0.3,8
			c-0.3,1.7-0.6,3-0.8,5.9c0.3,2.4,0.5,4.4,0.9,5.5c0.4,1.3,0.6,1.9,0.8,2.1v-2.4c0.9-2.7,1,5.3,1.5,8.9c1.5-2.7,4.1-1.2,5.4-11.7
			c-0.5-3.9,0-5.7,0.5-7.7c0.5-2.1,1.2-4.2,0.4-8.6c-1.4-2.3-1.4-5.5-1.4-9c-0.1-3.5-0.4-7.5-2.1-11.2c1,1.9,0.9-0.4,0.6-2.4
			c-0.3-2.1-0.4-3.7,1.2-0.5c0.1-1.7-1-5.8-2.4-10.3c-1.5-4.4-3.1-9.1-3.5-12.3c0.6,0.9,0.9,0.5,1.5,1.9c-3.6-8.1-0.9-6-3.1-12.3
			l-1.3,0.8c-1.3-2.2-0.6-3.2-1.7-5.3c0.5,1.7,1.2,5.5-0.1,3.9c-1.4-2.7-2.8-4.9-4-7.8c0.5-0.3,1.5,1.8,2.3,3.1c0,0-2.4-6.7-2.1-7.3
			c1.5,2.1,2.6,5.1,4.2,6.9c-3.1-8.9,0.1-0.9-0.4-5.7c-1,1.8-4-7.2-6.6-11.6c0.5-0.8,1.7,3.1,2.7,4.1c-0.5-5.1-2.4-8.2-4.6-11.7
			c-2.2-3.3-5-6.7-7.8-12.3c0.3,0.1,1.3,1.3,1.7,1.9c-0.9-1.2-1.5-2.4-2.1-3.5c-0.6-1.2-1.2-2.2-1.7-3.2c-1-2.1-1.9-3.7-3.5-5.1
			c-2.8-4.9,1.2-1.9-4-9.1c0,1.5-1.4-0.5-3.1-3c-1.8-2.3-3.7-4.9-4.5-4.4c0,0-0.8-1.5-1.7-3c-0.4-0.8-0.8-1.5-1.2-2.1
			c-0.4-0.5-0.5-0.9-0.5-0.9c-4.6-3.7-1.5,3.3-9.1-5.3c-6.6-8.1,3.1-1.4-0.4-6.6l-2.6-1.2l-3.1-4.2l0.6,0.5c-2.4-1.9-6.3-6-5.9-6.4
			c0.6,0,3.1,2.3,3.7,2.3c-2.2-1.4-5.4-5.5-9-9.1c-1.8-1.8-3.7-3.6-5.4-5.1c-1.8-1.3-3.6-2.3-5.1-2.6c-1-1.2-2.8-2.7-4.1-4
			c-1.4-1.3-2.4-2.2-1.8-2.3c-1.5-0.3-4.2-2.3-7.2-4.6c-2.8-2.2-6-4.4-8-5.1c0.4,0-0.3-0.8-1.2-1.7c-0.5-0.4-1.2-0.9-1.8-1.4
			c-0.6-0.4-1.4-0.8-2.2-1.2c3.3,2.6,0.9,1.7-1.9,0.8c-1.3-1.3-4.4-3.1-7.2-4.8c-2.8-1.5-5.4-3.1-5.8-4.1c-5.5-1.8-4.1,0.1-5.7,0.5
			c-3-2.3-13.6-6.9-11-7.7c2.8,1.4,9,4.6,8.4,3.1c-5.1-3.1-2.6-0.6-7.2-2.4c0.5-0.1-2.7-2.3-1.7-2.4c-2.8-0.9-6.6-2.4-10.4-4.2
			c3,1.5,1.8,1.4,0.5,1.3c-1.4-0.1-3.1-0.4-1.4,0.5c0,0,0.4,0,1,0.1c0.6,0.1,1.4,0.3,2.2,0.4c1.5,0.3,3.1,0.5,3.1,0.5
			c7.1,2.7,1.2,1.5,3.6,3c-6.3-2.2-8.9-2.8-11.6-3c-2.6-0.3-5.1-0.5-11-1.9c-2.2-0.9-5.9-2.6-7.2-3c4,1,3.7-0.8,1.5-1.7
			c-1.8-0.1-3.3-0.5-4.9-0.9c-1.5-0.4-3-0.9-4.4-1.4c-2.8-1-5.4-2.4-8.2-3.1c4.8,1.4,2.1,1.9,0.1,1.9c-11.8-1.2-4.5-1.4-9.5-3.1
			c-4.5-0.8-8.7-1.3-12.6-1.9c-3.9-0.6-7.6-1-11-1.5s-6.9-0.6-10.4-0.8c-1-1.2-2.7-1.2-4.5-1.2c-1.8,0-3.6,0.3-5.4,0.4
			c0,0,1.8,0.4,3.5,0.6c0.9,0.1,1.8,0.4,2.4,0.5c0.6,0.1,1,0.3,1,0.3l2.3-1.4c5.4,1.3-1.2,3.2-4.1,4c-0.8-0.5-9.8,0-6.2-0.9
			c0,0-2.2,0.3-4.4,0.4c-1,0.1-2.2,0.3-3,0.3c-0.8,0.1-1.4,0.3-1.4,0.3c1.3,0.5,6.9,0.1,3,0.9c-2.8-0.4-11.8,0.1-6.3-1.2
			c-2.3,0.1-4.9,0.5-6.8,0.8c-1.9,0.4-3.1,0.9-2.6,1.3c-3.7,0.5-3.6,0-2.1-0.6c1.4-0.8,4.2-1.7,5.9-2.1c-3,0.1-4.2,0-4.6-0.3
			c-0.4-0.4,0.3-0.8,1.2-1.2l-8.2,1.3c1.8-0.6,1.7-1.2,3.5-1.8c-2.7,0.1-5,0.6-7.3,1.2c-2.2,0.5-4.2,1-6.7,0.9l-1.8,1.5
			c-3.7,0.4-6.4,0.9-8.6,1.2c-2.2,0.4-3.9,0.6-5.4,0.9c-3.2,0.5-6.3,1.4-13.1,3.3l2.6,0.3c-1.3,0.5-2.3,1-3.2,1.3
			c-0.9,0.4-1.7,0.6-2.3,0.9c-1.4,0.4-2.4,0.5-3.7,0.8c-2.4,0.4-5.4,0.6-11.9,3.6c-1.8,0.9-3.5,1.7-5,2.4c-1.4,0.8-2.6,1.4-3.6,2.1
			c-1.8,1.2-2.6,2.1-1.8,2.4c-4,2.4-5.4,2.1-7.5,2.6c-3,2.4-9.1,7.1-14.4,9.3c3.1-2.3,5.7-4.2,8.9-6c-1.7-0.9-11.2,5.7-16.6,8.4
			c-1.5,1.4-5,4.2-8.6,7.6c-3.5,3.3-7.5,6.9-9.9,9.8c3.3-1.2,3.3,1-1.2,5.9c0.1-0.6-1.8,0.5-4.1,2.2c-2.3,1.8-5.1,4-7.1,5.3
			c0.6-1-1.7,0.3-3.2,1c-1.4,0.8-2.3,0.9,1.2-2.4c2.4-1.5,4.2-1.4,6.8-4.4c-1.2,0.4-3.1,1.4-5.4,2.8c-1.2,0.6-2.4,1.4-3.7,2.3
			c-1.3,0.9-2.6,1.8-3.9,2.8c0.1-0.6,2.1-3.5,4.6-5.7C89.1,89.9,90.1,89.4,90.5,89.6z		">
<animateTransform  accumulate="none" additive="replace" attributeName="transform" attributeType="XML" calcMode="linear" dur="0.5s" fill="remove" restart="always" type="translate" values="0 50;0 0;">
				</animateTransform>
		</path>
		<path class="st0" d="M483.7,332.8c-0.1,0.3-0.1,0.6-0.3,0.9l0.6-1C483.8,332.9,483.7,332.9,483.7,332.8z"/>
		<path class="st0" d="M6.9,267.5c0,0.5,0.3,1.4,0.4,1.4C7.3,268.4,7.1,267.8,6.9,267.5z"/>
		<path class="st0" d="M41.8,402.3c0-0.3,0.1-0.3,0.3-0.4C41.9,401.8,41.8,401.9,41.8,402.3z"/>
		<path class="st0" d="M495.4,326.6l-0.3,2.4C495.4,328.2,495.2,327.6,495.4,326.6z"/>
	</g>
</g>
<g id="C">
	<g>
		<path class="st0" d="M245.2,388.5H199c-70.2,0-127.3-57.2-127.3-127.3v-7.8C71.6,183.2,128.8,126,199,126h89.9l-23.6,32.4H199
			c-52.3,0-95,42.5-95,95v7.8c0,52.3,42.5,95,95,95h66.4L245.2,388.5z		">
<animateTransform  accumulate="none" additive="replace" attributeName="transform" attributeType="XML" calcMode="linear" dur="0.5s" fill="remove" restart="always" type="translate" values="-200 0;0 0;">
				</animateTransform>
		</path>
	</g>
</g>
<g id="J">
	<g>
		<path class="st0" d="M264,443.2h-84.7c-22.4,0-40.6-18.2-40.6-40.6v-27.1l32.4,12.6v14.5c0,4.5,3.7,8.2,8.2,8.2H264
			c4.4,0,8-3.6,8-8V157.9l23.6-32.4H328l-23.6,32.4v244.9C304.3,425,286.2,443.2,264,443.2z"/>
	</g>
</g>
<g id="D">
	<g>
		<path class="st0" d="M370.7,388.5H253.2l20.2-32.4h97.4c17.7,0,32.1-14.4,32.1-32.1V190.5c0-17.7-14.4-32.1-32.1-32.1h-60.1
			l23.6-32.4h36.6c35.6,0,64.5,28.9,64.5,64.5V324C435.2,359.6,406.3,388.5,370.7,388.5z		">
<animateTransform  accumulate="none" additive="replace" attributeName="transform" attributeType="XML" calcMode="linear" dur="0.5s" fill="remove" restart="always" type="translate" values="200 0;0 0;">
				</animateTransform>
		</path>
	</g>
</g>
</svg>
